<?xml version="1.0" encoding="utf-8"?>
<!-- Generator: Adobe Illustrator 19.1.0, SVG Export Plug-In . SVG Version: 6.00 Build 0)  -->
<svg version="1.1" id="Layer_1" xmlns="http://www.w3.org/2000/svg" xmlns:xlink="http://www.w3.org/1999/xlink" x="0px" y="0px"
	 viewBox="0 0 22 15" style="enable-background:new 0 0 22 15;" xml:space="preserve">
<style type="text/css">
	.st0{fill:#F9F8F7;}
</style>
<g>
	<path class="st0" d="M21.7,1L11.3,9.4c-0.1,0.1-0.2,0.1-0.3,0.1s-0.2,0-0.3-0.1L0.3,1C0.1,1.3,0,1.6,0,2v11c0,1.1,0.9,2,2,2h18
		c1.1,0,2-0.9,2-2V2C22,1.6,21.9,1.3,21.7,1z"/>
	<path class="st0" d="M21,0.3C20.7,0.1,20.4,0,20,0H2C1.6,0,1.3,0.1,1,0.3l10,8.1L21,0.3z"/>
</g>
</svg>
