<?xml version="1.0" encoding="utf-8"?>
<!-- Generator: Adobe Illustrator 16.0.0, SVG Export Plug-In . SVG Version: 6.00 Build 0)  -->
<!DOCTYPE svg PUBLIC "-//W3C//DTD SVG 1.1//EN" "http://www.w3.org/Graphics/SVG/1.1/DTD/svg11.dtd">
<svg version="1.1" id="Filled_Icons" xmlns="http://www.w3.org/2000/svg" xmlns:xlink="http://www.w3.org/1999/xlink" x="0px"
	 y="0px" width="24px" height="24px" viewBox="0 0 24 24" enable-background="new 0 0 24 24" xml:space="preserve">
<g>
	<path d="M7.5,24c4.135,0,7.5-3.365,7.5-7.5c0-1.085-0.229-2.131-0.681-3.113l2.888-2.887H19V8.707L19.207,8.5H21V6.707L21.207,6.5
		H23V4.707l1-1V0h-3.707l-9.681,9.68C9.63,9.228,8.585,9,7.5,9C3.364,9,0,12.365,0,16.5S3.364,24,7.5,24z M5.5,16.5
		c1.103,0,2,0.897,2,2c0,1.103-0.897,2-2,2c-1.104,0-2-0.897-2-2C3.5,17.397,4.396,16.5,5.5,16.5z"/>
</g>
</svg>
