<?xml version="1.0" encoding="utf-8"?>
<!-- Generator: Adobe Illustrator 19.1.0, SVG Export Plug-In . SVG Version: 6.00 Build 0)  -->
<svg version="1.1" id="Layer_1" xmlns="http://www.w3.org/2000/svg" xmlns:xlink="http://www.w3.org/1999/xlink" x="0px" y="0px"
	 viewBox="0 0 22.5 22.5" style="enable-background:new 0 0 22.5 22.5;" xml:space="preserve">
<style type="text/css">
	.st0{fill:#FCFBFA;}
</style>
<path class="st0" d="M21.7,16.4L19.3,14c-0.5-0.5-1.1-0.8-1.8-0.8c-0.7,0-1.3,0.3-1.8,0.8L15,14.6c-2.6-2.1-5-4.6-7.2-7.2l0.7-0.7
	c1-1,1-2.6,0-3.6L6.1,0.8C5.6,0.3,4.9,0,4.2,0C3.6,0,2.9,0.3,2.4,0.8L1.1,2.1c-1.2,1.2-1.4,3.2-0.5,4.7c3.9,5.9,9.2,11.2,15.1,15.1
	c0.6,0.4,1.3,0.6,2.1,0.6c1,0,1.9-0.4,2.6-1.1l1.3-1.3c0.5-0.5,0.8-1.1,0.8-1.8C22.5,17.6,22.2,16.9,21.7,16.4z"/>
</svg>
